<svg width="246" height="42" viewBox="0 0 246 42" fill="none" xmlns="http://www.w3.org/2000/svg">
<path d="M13.69 0.690002H25.85L43.12 28.92H43.24V0.690002H52.19V41.31H40.48L22.75 12.39H22.64V41.31H13.69V0.690002Z" fill="#231F20"/>
<path d="M63.72 8.61H52.13V0.690002H84.26V8.61H72.67V41.31H63.72V8.61Z" fill="#231F20"/>
<path d="M89.37 0.690002H98.32V15.84H115.7V0.690002H124.7V41.31H115.7V23.75H98.32V41.31H89.37V0.690002Z" fill="#231F20"/>
<path d="M144.91 25.58H130.79V18.7H144.91V25.58Z" fill="#231F20"/>
<path d="M160 10.33L151.86 17.5L147 11.88L160.22 0.690002H168.22V41.31H160V10.33Z" fill="#AD9970"/>
</svg>
