<svg width="39" height="33" viewBox="0 0 39 33" fill="none" xmlns="http://www.w3.org/2000/svg">
<path d="M19.5 2.97275C24.7065 2.97275 25.324 2.98925 27.3796 3.069C29.5051 3.1515 31.694 3.56125 33.2426 4.87162C34.8059 6.19437 35.2755 8.02862 35.373 9.83263C35.4672 11.572 35.4867 12.0945 35.4867 16.5C35.4867 20.9055 35.4672 21.428 35.373 23.1674C35.2771 24.9563 34.7815 26.8263 33.2426 28.1284C31.6794 29.4511 29.5133 29.8485 27.3796 29.931C25.324 30.0107 24.7065 30.0272 19.5 30.0272C14.2935 30.0272 13.676 30.0107 11.6204 29.931C9.5225 29.8499 7.28325 29.4209 5.75737 28.1284C4.20225 26.8125 3.7245 24.9604 3.627 23.1674C3.53275 21.428 3.51325 20.9055 3.51325 16.5C3.51325 12.0945 3.53275 11.572 3.627 9.83263C3.72288 8.05063 4.22337 6.16962 5.75737 4.87162C7.31737 3.55163 9.49325 3.1515 11.6204 3.069C13.676 2.98925 14.2935 2.97275 19.5 2.97275ZM19.5 0C14.2041 0 13.5395 0.01925 11.4595 0.099C8.44513 0.215875 5.45187 0.925375 3.27275 2.76925C1.0855 4.62 0.255125 7.14725 0.117 9.6965C0.02275 11.4565 0 12.0189 0 16.5C0 20.9811 0.02275 21.5435 0.117 23.3035C0.255125 25.8514 1.09687 28.391 3.27275 30.2308C5.45837 32.0801 8.45 32.7841 11.4595 32.901C13.5395 32.9807 14.2041 33 19.5 33C24.7959 33 25.4605 32.9807 27.5405 32.901C30.5532 32.7841 33.5498 32.0733 35.7273 30.2308C37.9161 28.3786 38.7449 25.8527 38.883 23.3035C38.9772 21.5435 39 20.9811 39 16.5C39 12.0189 38.9772 11.4565 38.883 9.6965C38.7449 7.14588 37.9048 4.61175 35.7273 2.76925C33.5449 0.922625 30.5451 0.2145 27.5405 0.099C25.4605 0.01925 24.7959 0 19.5 0Z" fill="#B79B6E"/>
<path d="M19.5 8.02734C13.9701 8.02734 9.48676 11.821 9.48676 16.5001C9.48676 21.1792 13.9701 24.9728 19.5 24.9728C25.0299 24.9728 29.5133 21.1792 29.5133 16.5001C29.5133 11.821 25.0299 8.02734 19.5 8.02734ZM19.5 22.0001C15.9104 22.0001 13 19.5375 13 16.5001C13 13.4627 15.9104 11.0001 19.5 11.0001C23.0896 11.0001 26 13.4627 26 16.5001C26 19.5375 23.0896 22.0001 19.5 22.0001Z" fill="#B79B6E"/>
<path d="M29.9097 9.67191C31.2021 9.67191 32.2497 8.78544 32.2497 7.69191C32.2497 6.59839 31.2021 5.71191 29.9097 5.71191C28.6174 5.71191 27.5697 6.59839 27.5697 7.69191C27.5697 8.78544 28.6174 9.67191 29.9097 9.67191Z" fill="#B79B6E"/>
</svg>
