<svg width="540" height="42" viewBox="0 0 540 42" fill="none" xmlns="http://www.w3.org/2000/svg">
<g clip-path="url(#clip0_3_2)">
<path d="M158.32 0.999994H173C174.944 0.987285 176.884 1.17494 178.79 1.55999C180.489 1.89156 182.107 2.55414 183.55 3.50999C184.925 4.45605 186.036 5.73617 186.78 7.22999C187.639 9.0746 188.051 11.0962 187.98 13.13C188.036 15.1477 187.643 17.1526 186.83 19C186.153 20.5056 185.099 21.8111 183.77 22.79C182.385 23.7688 180.812 24.4498 179.15 24.79C177.248 25.1994 175.306 25.3972 173.36 25.38H167V41H158.31L158.32 0.999994ZM167 18H172.79C173.549 18.0036 174.306 17.9298 175.05 17.78C175.742 17.64 176.402 17.3757 177 17C177.584 16.6413 178.066 16.1386 178.4 15.54C178.776 14.8152 178.958 14.0059 178.93 13.19C178.97 12.3189 178.724 11.4585 178.23 10.74C177.766 10.1191 177.154 9.62414 176.45 9.29999C175.679 8.93097 174.85 8.69755 174 8.60999C173.1 8.51999 172.25 8.46999 171.43 8.46999H167V18Z" fill="white"/>
<path d="M191.29 21C191.25 18.0284 191.787 15.0773 192.87 12.31C193.865 9.81072 195.374 7.5485 197.3 5.66995C199.225 3.82952 201.505 2.40047 204 1.46995C209.499 -0.480219 215.501 -0.480219 221 1.46995C223.51 2.39562 225.803 3.82492 227.74 5.66995C229.666 7.5485 231.175 9.81072 232.17 12.31C233.28 15.0719 233.844 18.0232 233.83 21C233.87 23.9715 233.333 26.9226 232.25 29.69C231.255 32.1892 229.746 34.4514 227.82 36.33C225.883 38.175 223.59 39.6043 221.08 40.53C215.581 42.4801 209.579 42.4801 204.08 40.53C201.57 39.6043 199.277 38.175 197.34 36.33C195.414 34.4514 193.905 32.1892 192.91 29.69C191.813 26.9253 191.263 23.9741 191.29 21V21ZM200.29 21C200.271 22.7604 200.562 24.5104 201.15 26.17C201.695 27.6764 202.538 29.0573 203.63 30.23C204.718 31.3841 206.037 32.2971 207.5 32.91C210.738 34.19 214.342 34.19 217.58 32.91C219.043 32.2971 220.362 31.3841 221.45 30.23C222.567 29.0636 223.434 27.6823 224 26.17C224.588 24.5104 224.879 22.7604 224.86 21C224.874 19.2497 224.583 17.5103 224 15.86C223.46 14.3421 222.616 12.9504 221.52 11.77C220.432 10.6158 219.113 9.70276 217.65 9.08995C214.412 7.80995 210.808 7.80995 207.57 9.08995C206.107 9.70276 204.788 10.6158 203.7 11.77C202.604 12.9504 201.76 14.3421 201.22 15.86C200.62 17.5073 200.312 19.2467 200.31 21H200.29Z" fill="white"/>
<path d="M239.73 0.999972H252.73C255.763 0.981131 258.786 1.34057 261.73 2.06997C264.417 2.70888 266.945 3.88966 269.16 5.53997C271.302 7.18978 273.017 9.32975 274.16 11.78C275.484 14.7005 276.124 17.8847 276.03 21.09C276.088 24.0441 275.469 26.9723 274.22 29.65C273.064 32.0446 271.403 34.1599 269.35 35.85C267.253 37.5579 264.85 38.8509 262.27 39.66C259.553 40.5351 256.714 40.9739 253.86 40.96H239.66L239.73 0.999972ZM248.42 32.83H252.93C254.815 32.847 256.695 32.6389 258.53 32.21C260.147 31.8523 261.67 31.1571 263 30.17C264.298 29.1782 265.329 27.8792 266 26.39C266.773 24.5811 267.145 22.6263 267.09 20.66C267.129 18.895 266.756 17.1454 266 15.55C265.308 14.1579 264.306 12.9433 263.07 12C261.777 11.027 260.311 10.3076 258.75 9.87997C257.054 9.40636 255.301 9.17077 253.54 9.17997H248.42V32.83Z" fill="white"/>
<path d="M282 1H295.14L304.22 27.08H304.33L313.46 1H326.55V41H317.86V10.33H317.75L307.39 41H300.77L290.77 10.35H290.66V41H282V1Z" fill="#B79B6E"/>
<path d="M331.67 1H340.36V41H331.67V1Z" fill="#B79B6E"/>
<path d="M374.05 11.4C373.203 10.3637 372.124 9.54153 370.9 9.00004C369.542 8.40794 368.071 8.11792 366.59 8.15004C365.022 8.14695 363.472 8.48833 362.05 9.15004C360.669 9.78033 359.436 10.6933 358.43 11.83C357.38 13.03 356.565 14.4177 356.03 15.92C355.447 17.5704 355.156 19.3098 355.17 21.06C355.151 22.8205 355.442 24.5705 356.03 26.23C356.567 27.7162 357.37 29.092 358.4 30.29C359.379 31.4222 360.585 32.3353 361.94 32.97C363.303 33.6272 364.797 33.969 366.31 33.97C367.953 33.9685 369.568 33.545 371 32.74C372.379 31.9865 373.548 30.9002 374.4 29.58L381.64 35.06C380.049 37.3634 377.851 39.1807 375.29 40.31C372.812 41.4126 370.132 41.9881 367.42 42C364.514 42.0298 361.628 41.5318 358.9 40.53C356.39 39.6044 354.097 38.1751 352.16 36.33C350.233 34.4544 348.727 32.1912 347.74 29.69C346.648 26.925 346.107 23.9728 346.15 21C346.107 18.0273 346.648 15.0751 347.74 12.31C348.727 9.80889 350.233 7.54569 352.16 5.67004C354.097 3.82501 356.39 2.39571 358.9 1.47004C361.628 0.468316 364.514 -0.0297641 367.42 4.206e-05C368.587 0.0024758 369.751 0.106199 370.9 0.310042C372.12 0.5262 373.315 0.861128 374.47 1.31004C375.664 1.77201 376.796 2.37996 377.84 3.12004C378.935 3.891 379.909 4.82127 380.73 5.88004L374.05 11.4Z" fill="#B79B6E"/>
<mask id="mask0_3_2" style="mask-type:alpha" maskUnits="userSpaceOnUse" x="144" y="0" width="132" height="120">
<path fill-rule="evenodd" clip-rule="evenodd" d="M276 0H144V50H276V0ZM276 70H144V120H276V70Z" fill="#1F1F1F"/>
</mask>
<g mask="url(#mask0_3_2)">
</g>
</g>
<defs>
<clipPath id="clip0_3_2">
<rect width="540" height="42" fill="white"/>
</clipPath>
</defs>
</svg>
