<svg width="92" height="25" viewBox="0 0 92 25" fill="none" xmlns="http://www.w3.org/2000/svg">
<path d="M20.8622 7.85649C20.8622 3.38329 16.3602 0.635784 12.1715 0.635784H0V24.3302H7.28667V12.8747L12.9025 24.1371L12.9953 24.3074H21.2683L15.49 14.3392C18.82 13.4196 20.8622 10.9559 20.8622 7.85649ZM7.28667 4.06449H9.42162C11.7422 4.06449 13.3666 5.67666 13.3666 7.97003C13.3666 11.2852 11.4289 11.9437 8.06407 11.9437H7.26346V4.06449H7.28667Z" fill="black"/>
<path d="M83.1933 20.5609V14.0554H91.1298V10.2747H83.1933V4.42779H91.5475V0.635784H75.9183V24.3302H92V20.5609H83.1933Z" fill="black"/>
<path d="M60.962 0.635784H50.2409V24.3302H62.0643C69.3162 24.3302 73.9922 19.8569 73.9922 12.9201C73.9574 5.80154 68.4924 0.635784 60.962 0.635784ZM66.4386 11.9777C66.4386 16.3828 64.6518 21.0718 59.6161 21.0718H57.1911V3.88283H59.3724C64.2573 3.88283 66.4386 7.94732 66.4386 11.9777Z" fill="black"/>
<path d="M47.665 2.22525L45.6345 0.23842L43.1399 2.67938C40.9585 1.01045 38.1506 0 35.0758 0C27.8471 0 22.2081 5.48365 22.2081 12.4886C22.2081 15.52 23.2756 18.2675 25.0624 20.4133L22.6142 22.8088L24.6447 24.7956L27.1162 22.3774C29.2975 24.0123 32.0474 25 35.0758 25C42.3045 25 47.9435 19.5277 47.9435 12.5227C47.9435 9.53679 46.9224 6.82334 45.182 4.71163L47.665 2.22525ZM35.0874 3.09946C37.3384 3.09946 38.6495 4.54133 39.4153 6.3465L29.9589 15.5995C29.7848 14.4187 29.7384 13.2834 29.7384 12.4773C29.7384 9.67302 30.2722 3.09946 35.0874 3.09946ZM40.2159 9.51408C40.3668 10.6494 40.4132 11.6939 40.4132 12.4773C40.4132 15.2929 39.9026 21.8551 35.0642 21.8551C32.8596 21.8551 31.5601 20.4814 30.7827 18.7103L40.2159 9.51408Z" fill="black"/>
</svg>
