<svg width="610" height="100" viewBox="0 0 610 100" fill="none" xmlns="http://www.w3.org/2000/svg">
<g clip-path="url(#clip0_9_2)">
<path d="M48.1786 33.1666C48.1786 15.8571 39.9664 5.0238 32.3639 5.0238H10.3135V97.619H23.5301V52.6428L33.6969 96.7619L33.8211 97.5715H48.8451L38.4074 58.5951C44.4621 54.7619 48.1786 45.0715 48.1786 33.1666ZM23.5301 18.2857H27.3821C28.3388 18.1943 29.2937 18.5241 30.1864 19.2539C31.0791 19.9838 31.8897 21.0977 32.5667 22.5247C33.2437 23.9517 33.7723 25.6604 34.1185 27.5419C34.4648 29.4234 34.6214 31.4364 34.578 33.4524C34.578 46.4285 31.11 48.857 24.9421 48.857H23.5301V18.2857Z" fill="white"/>
<path d="M161.142 82.6904V57.2619H175.522V42.3811H161.142V19.6429H176.29V4.7619H147.925V97.2857H177.058V82.6904H161.142Z" fill="white"/>
<path d="M120.87 4.7619H101.452V97.2857H122.915C136.007 97.2857 144.48 79.7142 144.48 52.6428C144.457 25.0476 134.573 4.7619 120.87 4.7619ZM130.755 49.1428C130.755 66.1904 127.546 84.5715 118.43 84.5715H114.093V17.4762H118.069C126.869 17.4762 130.721 33.4523 130.721 49.1428H130.755Z" fill="white"/>
<path d="M96.8319 11.2619L93.104 3.40472L88.5855 12.9285C84.4012 6.11676 79.2665 2.40883 73.9795 2.38091C69.5926 2.31415 65.287 4.87259 61.5625 9.75893C57.8381 14.6453 54.8482 21.6589 52.9398 29.9847C51.0317 38.3106 50.2835 47.607 50.7825 56.7934C51.2815 65.98 53.0068 74.6793 55.7585 81.8808L51.24 91.4047L54.9565 99.2619L59.475 89.7381C63.6316 96.4719 68.7369 100.084 73.9795 100C77.0389 100.105 80.0777 98.9208 82.9175 96.5178C85.757 94.1147 88.3405 90.541 90.5163 86.0059C92.6921 81.471 94.4164 76.0662 95.5883 70.1081C96.76 64.1502 97.3556 57.7589 97.3401 51.3096C97.3343 40.2213 95.5733 29.4544 92.336 20.7142L96.8319 11.2619ZM73.9795 14.5C78.0914 14.5 80.3956 20.1904 81.8079 27.2142L64.739 63.2142C64.5137 59.1678 64.3967 55.0978 64.3889 51.0238C64.2306 40.2142 65.2586 14.5 73.9795 14.5ZM83.2199 39.6666C83.451 43.5291 83.5756 47.4166 83.5926 51.3096C83.5926 62.3808 82.6889 87.8334 73.9569 87.8334C69.9805 87.8334 67.5405 82.4047 66.2529 75.6427L83.2199 39.6666Z" fill="white"/>
<path d="M590.04 2.54762H588.424V0.738098H592.66V2.54762H591.045V11.9048H590.04V2.54762ZM593.689 0.738098H595.225L596.67 9.38096L598.15 0.738098H599.686V11.9048H598.704V2.59524L597.156 12.119H596.331L594.774 2.71428V11.9048H593.766L593.689 0.738098Z" fill="white"/>
<path d="M555.394 0H560.126V98.6904H546.04V19.8095C546.042 14.5741 547.028 9.55345 548.781 5.84253C550.534 2.1316 552.909 0.0314215 555.394 0Z" fill="#AC9870"/>
<path d="M572.721 98.6904H567.99V0H582.075V78.8809C582.073 84.1164 581.087 89.137 579.335 92.8479C577.584 96.5589 575.206 98.6591 572.721 98.6904Z" fill="#AC9870"/>
<path d="M223.915 82.5953C222.042 88.2036 219.508 92.6847 216.561 95.5953C213.717 98.2562 210.636 99.6038 207.524 99.5477C204.355 99.6204 201.208 98.3911 198.261 95.9285C195.546 93.6251 193.091 90.1453 191.054 85.7143C189.025 81.2817 187.438 76.0351 186.389 70.2858C185.246 64.0202 184.675 57.3556 184.706 50.6428C184.672 43.953 185.243 37.3109 186.389 31.0715C187.445 25.3166 189.035 20.0633 191.066 15.6191C193.108 11.2187 195.557 7.75009 198.261 5.4286C201.2 2.93011 204.344 1.68389 207.513 1.76194C210.388 1.71337 213.239 2.85396 215.906 5.11909C218.597 7.53679 220.936 11.4145 222.684 16.3572L219.295 22.2619C218.013 18.0823 216.185 14.7745 214.031 12.7381C211.963 10.7529 209.718 9.72196 207.445 9.71432C204.783 9.629 202.142 10.6988 199.685 12.8572C197.483 14.8414 195.499 17.759 193.856 21.4285C192.211 25.1943 190.94 29.6141 190.117 34.4285C189.23 39.6117 188.786 45.0853 188.806 50.5953C188.786 56.1051 189.23 61.579 190.117 66.7619C190.94 71.5836 192.211 76.0111 193.856 79.7858C195.514 83.5075 197.522 86.4592 199.752 88.4524C202.209 90.619 204.85 91.6968 207.513 91.6192C209.948 91.5777 212.346 90.373 214.528 88.0953C215.697 86.8836 216.797 85.3894 217.804 83.6428C218.87 81.7734 219.795 79.5736 220.549 77.1192L223.915 82.5953Z" fill="white"/>
<path d="M244.994 4.11902H249.23L267.814 97.1666H263.204L258.404 72.4762H235.02L230.026 97.1666H225.724L244.994 4.11902ZM246.925 13.6428L236.635 64.6189H256.9L246.925 13.6428Z" fill="white"/>
<path d="M275.359 79.9523C276.334 83.6781 277.797 86.7355 279.571 88.7619C281.388 90.7438 283.412 91.7421 285.456 91.6666C286.771 91.6849 288.077 91.234 289.32 90.3334C290.472 89.5366 291.539 88.293 292.471 86.6666C293.363 85.0957 294.084 83.1489 294.596 80.9523C295.128 78.5887 295.395 75.9974 295.375 73.3808C295.427 70.5719 295.09 67.7917 294.404 65.3808C293.747 63.2417 292.86 61.4562 291.816 60.1666C290.663 58.7408 289.439 57.5757 288.169 56.6904C286.825 55.7381 285.424 54.7619 284 53.8096C282.576 52.857 281.165 51.7381 279.82 50.5238C278.495 49.344 277.264 47.7377 276.171 45.7619C275.061 43.7166 274.178 41.1802 273.585 38.3334C272.891 34.8468 272.56 31.0881 272.614 27.3096C272.571 23.5138 272.96 19.7516 273.744 16.3333C274.483 13.1978 275.548 10.4549 276.861 8.3095C278.218 6.15584 279.747 4.5421 281.38 3.54759C283.115 2.44136 284.919 1.88762 286.734 1.90474C289.033 1.86319 291.314 2.77744 293.444 4.59521C295.577 6.51336 297.422 9.6258 298.775 13.5952L295.216 18.9762C294.297 16.0467 293.058 13.6224 291.604 11.9047C290.068 10.266 288.365 9.44836 286.644 9.52378C285.355 9.51378 284.073 9.89059 282.836 10.6428C281.698 11.3498 280.632 12.5051 279.696 14.0476C278.794 15.5033 278.057 17.3662 277.539 19.5C276.974 21.9111 276.695 24.5742 276.725 27.2619C276.603 31.1632 277.211 35.0102 278.42 37.9762C279.606 40.5517 281.038 42.5647 282.621 43.8808C284.41 45.4028 286.245 46.6753 288.111 47.6904C290.014 48.7289 291.855 50.2062 293.601 52.0953C295.274 53.9132 296.716 56.5504 297.805 59.7857C299.031 63.83 299.62 68.5885 299.486 73.3808C299.521 77.2362 299.134 81.0562 298.359 84.5477C297.652 87.7481 296.623 90.5842 295.341 92.857C294.046 95.1285 292.553 96.8506 290.946 97.9285C289.277 99.074 287.531 99.6525 285.774 99.6428C283.019 99.7064 280.284 98.6138 277.73 96.4285C275.189 94.1215 273.005 90.3604 271.426 85.5715L275.359 79.9523Z" fill="white"/>
<path d="M318.635 11.9047H303.544V4.11902H337.839V11.9047H322.746V97.1666H318.635V11.9047Z" fill="white"/>
<path d="M344.639 4.11902H371.649V11.9047H348.75V45.2381H370.214V53.1428H348.75V89.2857H372.631V97.1666H344.639V4.11902Z" fill="white"/>
<path d="M378.81 4.11902H390.411C390.986 4.11902 391.779 4.11902 392.771 4.26189C393.86 4.35404 394.945 4.61666 396.015 5.04759C397.228 5.51385 398.42 6.21523 399.574 7.14283C400.77 8.09881 401.872 9.5293 402.815 11.3571C403.816 13.3197 404.623 15.6831 405.186 18.3095C405.85 21.5453 406.17 25.0477 406.125 28.5715C406.178 32.3923 405.79 36.1834 404.995 39.6189C404.333 42.353 403.397 44.7498 402.25 46.6428C401.157 48.424 399.922 49.7787 398.601 50.6428C397.361 51.4781 396.092 52.0994 394.805 52.5L407.684 97.1666H403.006L390.58 53.0238H382.945V97.1666H378.834L378.81 4.11902ZM382.945 45.2381H391.676C393.465 45.373 395.252 44.7996 396.94 43.5477C398.124 42.6394 399.198 41.2017 400.091 39.3334C400.796 37.82 401.318 35.9755 401.616 33.9523C401.872 32.2483 402.007 30.4764 402.024 28.6904C402.007 26.9045 401.872 25.1326 401.616 23.4285C401.318 21.4053 400.796 19.5609 400.091 18.0476C399.198 16.1793 398.124 14.7415 396.94 13.8333C395.252 12.4932 393.459 11.8389 391.654 11.9047H382.945V45.2381Z" fill="white"/>
<path d="M421.08 4.11902H433.779C435.403 4.14191 437.024 4.51689 438.614 5.23808C440.25 5.94681 441.814 7.26074 443.234 9.11902C444.636 11.0204 445.798 13.6103 446.621 16.6666C447.57 20.3498 448.034 24.5015 447.966 28.6904C448.002 32.47 447.615 36.2143 446.836 39.6189C446.148 42.5751 445.148 45.1579 443.91 47.1666C442.641 49.1757 441.204 50.6694 439.675 51.5715C438.038 52.5415 436.348 53.0302 434.649 53.0238H425.114V97.1666H420.99L421.08 4.11902ZM425.204 45.2381H434.556C435.699 45.243 436.835 44.9632 437.946 44.4047C439.017 43.8823 440.031 42.946 440.94 41.6428C441.829 40.3308 442.557 38.5928 443.064 36.5715C443.64 34.1687 443.919 31.4996 443.876 28.8096C443.912 26.1579 443.62 23.5321 443.03 21.1904C442.491 19.1471 441.745 17.3758 440.85 16C439.92 14.611 438.874 13.6089 437.765 13.0476C436.64 12.368 435.48 11.9841 434.309 11.9047H425.204V45.2381Z" fill="#AD9970"/>
<path d="M456.879 4.11902H468.48C469.056 4.11902 469.846 4.11902 470.841 4.26189C471.929 4.35404 473.012 4.61666 474.084 5.04759C475.297 5.51385 476.487 6.21523 477.641 7.14283C478.839 8.09881 479.941 9.5293 480.884 11.3571C481.885 13.3197 482.693 15.6831 483.255 18.3095C483.919 21.5453 484.239 25.0477 484.194 28.5715C484.245 32.3923 483.859 36.1834 483.064 39.6189C482.403 42.353 481.464 44.7498 480.319 46.6428C479.234 48.4166 478.012 49.7708 476.704 50.6428C475.465 51.4781 474.196 52.0994 472.909 52.5L485.74 97.1666H481.064L468.639 53.0238H460.969V97.1666H456.856L456.879 4.11902ZM460.99 45.2381H469.724C471.513 45.373 473.298 44.7996 474.986 43.5477C476.169 42.6394 477.246 41.2017 478.139 39.3334C478.841 37.82 479.365 35.9755 479.664 33.9523C479.93 32.2125 480.074 30.3996 480.094 28.5715C480.076 26.7855 479.939 25.0136 479.686 23.3096C479.387 21.2864 478.865 19.4419 478.161 17.9286C477.267 16.0603 476.191 14.6225 475.01 13.7143C473.317 12.4147 471.524 11.8008 469.724 11.9047H460.99V45.2381Z" fill="#AD9970"/>
<path d="M490.981 50.643C490.949 43.953 491.52 37.3108 492.665 31.0715C493.731 25.3257 495.318 20.0758 497.341 15.6191C499.386 11.2128 501.839 7.74356 504.549 5.42856C510.503 0.538624 517.11 0.538624 523.064 5.42856C525.773 7.74356 528.228 11.2128 530.27 15.6191C532.302 20.0633 533.892 25.3166 534.949 31.0715C536.093 37.3108 536.665 43.953 536.63 50.643C536.663 57.3555 536.091 64.0202 534.949 70.2857C533.894 76.037 532.304 81.2838 530.27 85.7142C528.221 90.1591 525.751 93.64 523.019 95.9285C517.059 100.754 510.463 100.754 504.504 95.9285C501.804 93.6166 499.364 90.137 497.341 85.7142C495.311 81.2432 493.722 75.9666 492.665 70.1904C491.527 63.9547 490.958 57.3236 490.981 50.643ZM495.105 50.643C495.082 56.1513 495.522 61.6249 496.405 66.8096C497.232 71.6325 498.507 76.06 500.155 79.8334C501.817 83.5674 503.834 86.5206 506.074 88.5C511.058 92.7232 516.623 92.7232 521.606 88.5C523.835 86.5119 525.839 83.5591 527.491 79.8334C529.141 76.06 530.414 71.6325 531.241 66.8096C532.128 61.6264 532.573 56.1528 532.554 50.643C532.573 45.133 532.128 39.6594 531.241 34.4762C530.408 29.6376 529.121 25.2011 527.459 21.4285C525.807 17.6952 523.801 14.7345 521.574 12.7381C516.586 8.54673 511.028 8.54673 506.04 12.7381C503.811 14.7345 501.807 17.6952 500.155 21.4285C498.507 25.1934 497.232 29.6128 496.405 34.4285C495.518 39.6281 495.079 45.1185 495.105 50.643Z" fill="#AD9970"/>
</g>
<defs>
<clipPath id="clip0_9_2">
<rect width="610" height="100" fill="white"/>
</clipPath>
</defs>
</svg>
