<svg width="448" height="512" viewBox="0 0 448 512" fill="none" xmlns="http://www.w3.org/2000/svg">
<path d="M447.253 210.475C401.621 210.475 359.317 195.883 324.8 171.093V349.973C324.8 439.317 252.117 511.979 162.795 511.979C128.277 511.979 96.256 501.099 69.952 482.624C28.1813 453.291 0.789307 404.779 0.789307 349.973C0.789307 260.629 73.472 187.947 162.816 187.947C170.24 187.947 177.493 188.565 184.64 189.525V210.368V279.381C177.728 277.227 170.432 275.968 162.816 275.968C122.027 275.968 88.832 309.163 88.832 349.973C88.832 378.389 104.96 403.072 128.512 415.467C138.773 420.864 150.443 423.957 162.837 423.957C202.688 423.957 235.2 392.256 236.693 352.747L236.757 0H324.779C324.779 7.63733 325.525 15.0827 326.848 22.336C333.056 55.872 352.96 84.6507 380.544 102.635C399.744 115.157 422.656 122.475 447.232 122.475V210.475H447.253Z" fill="#B79B6E"/>
</svg>
