<svg width="62" height="37" viewBox="0 0 62 37" fill="none" xmlns="http://www.w3.org/2000/svg">
<path d="M55.579 9.49325C55.6163 9.8753 55.6176 10.2593 55.6188 10.6451C55.656 22.4305 42.9212 36.0602 19.5634 36.1339L19.5634 36.1267C12.6638 36.1557 5.9018 34.7897 0.0850363 32.1908C1.08864 32.2728 2.09726 32.3113 3.10834 32.3099C8.82916 32.2954 14.3806 30.9304 18.8685 28.4348C13.4337 28.3796 8.65939 25.906 6.9843 22.278C8.88861 22.5292 10.8487 22.4705 12.7175 22.1078C6.78772 21.2861 2.51524 17.6427 2.50184 13.3973C2.50172 13.3593 2.5016 13.3212 2.50149 13.285C4.27046 13.9713 6.24739 14.3472 8.26966 14.3825C2.67987 11.7829 0.940475 6.57577 4.29871 2.48994C10.7645 8.04082 20.29 11.3977 30.5025 11.7259C29.4687 8.63201 30.859 5.38194 34.1485 3.19267C39.2525 -0.201354 47.2978 -0.052869 52.1194 3.52355C54.9631 3.12154 57.6871 2.3794 60.1779 1.33372C59.2353 3.40147 57.2574 5.16097 54.6094 6.28503C57.1287 6.06517 59.5852 5.58469 61.9017 4.85652C60.2025 6.65317 58.0615 8.223 55.579 9.49325Z" fill="#B79B6E"/>
</svg>
