<svg width="55" height="34" viewBox="0 0 55 34" fill="none" xmlns="http://www.w3.org/2000/svg">
<path d="M53.8496 5.30873C53.2171 3.21942 51.354 1.57251 48.9867 1.01349C44.699 3.59574e-07 27.5 0 27.5 0C27.5 0 10.301 3.59574e-07 6.01104 1.01349C3.64604 1.57251 1.78292 3.21741 1.15042 5.30873C0 9.09723 0 17 0 17C0 17 0 24.9028 1.15042 28.6913C1.78292 30.7806 3.64604 32.4275 6.01333 32.9865C10.301 34 27.5 34 27.5 34C27.5 34 44.699 34 48.989 32.9865C51.354 32.4275 53.2171 30.7826 53.8519 28.6913C55 24.9028 55 17 55 17C55 17 55 9.09723 53.8496 5.30873ZM21.8762 24.1768V9.82316L36.2496 17L21.8762 24.1768Z" fill="#B79B6E"/>
</svg>
